<svg xmlns="http://www.w3.org/2000/svg" viewBox="0 0 47.5 47.5" id="rugby">
  <defs>
    <clipPath id="a">
      <path d="M0 38h38V0H0v38Z"></path>
    </clipPath>
    <clipPath id="b">
      <path d="M9.254 28.746C2.09 21.582-.927 9.561 3.929 3.929 9.561-.927 21.582 2.09 28.746 9.254c7.164 7.164 11.229 17.088 5.324 24.816-1.886 1.627-4.489 2.371-7.387 2.37-5.752 0-12.665-2.93-17.429-7.694"></path>
    </clipPath>
  </defs>
  <g clip-path="url(#a)" transform="matrix(1.25 0 0 -1.25 0 47.5)">
    <path fill="#3b88c3" d="M28.746 9.254C21.582 2.09 9.56-.927 3.93 3.93-.927 9.561 2.09 21.582 9.254 28.746c7.164 7.164 19.185 10.181 24.816 5.324 5.905-7.728 1.84-17.652-5.324-24.816"></path>
  </g>
  <g clip-path="url(#b)" transform="matrix(1.25 0 0 -1.25 0 47.5)">
    <path fill="#ccd6dd" d="M36.834 29.666C36.5 25.249 27.5 10.499 12.417 4.916c-1.167-.5-1.084-2 .833-2.167 1.917-.166 13.5.167 17.5 2.417s10.75 18.917 9 20.25c-1.75 1.333 4.416 7.75 3 6.417-1.416-1.334-5.916-2.167-5.916-2.167"></path>
    <path fill="#e1e8ed" d="M9.084 9.166c7.833 1.917 26.667 10.417 25.25 24.584-.416 1.166-8.151 6.116-21.333-4.75-7.584-6.25-8.779-14.191-8.25-18.917.202-1.813 2.415-1.387 4.333-.917"></path>
  </g>
</svg>
